# xmcd
#
# Track frame offsets:
#	150
#	11732
#	22646
#	33166
#	44453
#	55964
#	67924
#	79597
#	92767
#	105437
#	118147
#	129226
#	142987
#	152165
#	166872
#	179503
#	191436
#	203302
#	215752
#	225728
#	236681
#	250337
#	263594
#	275805
#	290435
#	301707
#	312289
#	324503
#	341752
#
# Disc length: 4731
#
# Revision: 1
# Processed by: cddbd v1.5.1PL0 Copyright (c) Steve Scherf et al.
# Submitted via: audiograbber 1.81.02
# Normalized: r0:DSETVAR1
#
DISCID=8a12791d
DTITLE=Various Artist - Rhythm and Blues Collection - Disc 02
DYEAR=2002
DGENRE=R&B
TTITLE0=Wilson Pickett - In The Midnight Hour
TTITLE1=Aretha Franklin - Respect
TTITLE2=Arthur Conley - Sweet Soul Music
TTITLE3=Otis Redding - Hard to Handle
TTITLE4=Temptations. The - Ain't Proud Too Beg
TTITLE5=Walking The Dog - Rufus Thomas
TTITLE6=Otis Redding and Carla Thomas - Lovey Dovey
TTITLE7=Ray Charles - I've Got a Woman
TTITLE8=Otis Redding - I Can't Turn You Loose
TTITLE9=Al Green - I'm So Tired
TTITLE10=Wilson Pickett - Mercy, Mercy
TTITLE11=Otis Redding and Carla Thomas - Tramp
TTITLE12=Booker T and The MGs - Boot-leg
TTITLE13=Otis Redding - Trick or Treat
TTITLE14=Aretha Franklin - Chain of Fools
TTITLE15=Otis Redding - Shake
TTITLE16=Sam and Dave - Hold On! I'm Coming!
TTITLE17=Solomon Burke - Everbody Needs Somebody To Love
TTITLE18=Otis Redding - Treat Her Right
TTITLE19=Booker T and The MGs - Soul Limbo
TTITLE20=Otis Redding - Higher and Higher
TTITLE21=Martha Reeves and The Vandellas - Nowhere to Run
TTITLE22=Otis Redding - (Sittin' on) The Dock of The Bay
TTITLE23=Booker T and The MGs - Time is Tight
TTITLE24=Otis Redding - Security
TTITLE25=The Mar-Keys - Soul Finger
TTITLE26=Sam Cooke - Twisting The Night Away
TTITLE27=Otis Redding - Try A Little Tenderness
TTITLE28=Jackson 5, The - A B C
EXTD=
EXTT0=
EXTT1=
EXTT2=
EXTT3=
EXTT4=
EXTT5=
EXTT6=
EXTT7=
EXTT8=
EXTT9=
EXTT10=
EXTT11=
EXTT12=
EXTT13=
EXTT14=
EXTT15=
EXTT16=
EXTT17=
EXTT18=
EXTT19=
EXTT20=
EXTT21=
EXTT22=
EXTT23=
EXTT24=
EXTT25=
EXTT26=
EXTT27=
EXTT28=
PLAYORDER=
